<svg xmlns="http://www.w3.org/2000/svg" width="512" height="512" fill="none" viewBox="0 0 512 512"><circle cx="256" cy="256" r="240" fill="#fff" stroke="#2563EB" stroke-width="24"/><g><path fill="#2563EB" d="M0,-120 C30,-110 60,-90 80,-40 L0,0 Z" transform="translate(256 256) rotate(0)"/><path fill="#2563EB" d="M0,-120 C30,-110 60,-90 80,-40 L0,0 Z" transform="translate(256 256) rotate(120)"/><path fill="#2563EB" d="M0,-120 C30,-110 60,-90 80,-40 L0,0 Z" transform="translate(256 256) rotate(240)"/></g><circle cx="256" cy="256" r="40" fill="#1E40AF"/><g stroke="#93C5FD" stroke-linecap="round" stroke-width="8"><path d="M120,256 C180,226 220,226 256,256"/><path d="M256,120 C286,180 286,220 256,256"/><path d="M392,256 C332,286 292,286 256,256"/><path d="M256,392 C226,332 226,292 256,256"/></g></svg>